<?xml version="1.0" encoding="UTF-8"?>
<svg id="Layer_1" xmlns="http://www.w3.org/2000/svg" version="1.1" viewBox="0 0 199.04 199.04">
  <!-- Generator: Adobe Illustrator 29.7.1, SVG Export Plug-In . SVG Version: 2.1.1 Build 8)  -->
  <defs>
    <style>
      .st0 {
        fill: #6495ed;
      }

      .st1 {
        fill: #ecc94b;
      }

      .st2 {
        fill: #ed64a6;
      }

      .st3 {
        fill: #9f7aea;
      }

      .st4 {
        fill: #e79e40;
      }

      .st5 {
        fill: #48bb78;
      }

      .st6 {
        fill: #f56565;
      }

      .st7 {
        fill: #38b2ac;
      }
    </style>
  </defs>
  <g id="Layer_2">
    <path class="st0" d="M64.99,44.2c0-11.32-9.21-20.51-20.51-20.51s-20.51,9.21-20.51,20.51,9.21,20.51,20.51,20.51,20.51-9.21,20.51-20.51Z"/>
    <path class="st4" d="M120.01,44.2c0-11.32-9.21-20.51-20.51-20.51s-20.51,9.21-20.51,20.51,9.21,20.51,20.51,20.51,20.51-9.21,20.51-20.51Z"/>
    <path class="st5" d="M175.03,44.2c0-11.32-9.21-20.51-20.51-20.51s-20.51,9.21-20.51,20.51,9.21,20.51,20.51,20.51,20.51-9.21,20.51-20.51Z"/>
    <path class="st6" d="M64.88,99.52c0-11.32-9.21-20.51-20.51-20.51s-20.51,9.21-20.51,20.51,9.21,20.51,20.51,20.51,20.51-9.21,20.51-20.51Z"/>
    <path class="st3" d="M119.9,99.52c0-11.32-9.21-20.51-20.51-20.51s-20.51,9.21-20.51,20.51,9.21,20.51,20.51,20.51,20.51-9.21,20.51-20.51Z"/>
    <path class="st7" d="M174.92,99.52c0-11.32-9.21-20.51-20.51-20.51s-20.51,9.21-20.51,20.51,9.21,20.51,20.51,20.51,20.51-9.21,20.51-20.51Z"/>
    <path class="st2" d="M64.88,154.84c0-11.32-9.21-20.51-20.51-20.51s-20.51,9.21-20.51,20.51,9.21,20.51,20.51,20.51,20.51-9.21,20.51-20.51Z"/>
    <path class="st1" d="M119.9,154.84c0-11.32-9.21-20.51-20.51-20.51s-20.51,9.21-20.51,20.51,9.21,20.51,20.51,20.51,20.51-9.21,20.51-20.51Z"/>
  </g>
</svg>